<svg width="23" height="27" viewBox="0 0 23 27" fill="none" xmlns="http://www.w3.org/2000/svg">
<path d="M20 26.5H2.5C1.8125 26.5 1.22375 26.255 0.733752 25.765C0.243752 25.275 -0.000831211 24.6867 2.12224e-06 24V9C2.12224e-06 8.3125 0.245002 7.72375 0.735002 7.23375C1.225 6.74375 1.81334 6.49917 2.5 6.5H5C5 4.77083 5.60959 3.29667 6.82875 2.0775C8.04792 0.858334 9.52167 0.249168 11.25 0.250001C12.9792 0.250001 14.4533 0.859584 15.6725 2.07875C16.8917 3.29792 17.5008 4.77167 17.5 6.5H20C20.6875 6.5 21.2763 6.745 21.7663 7.235C22.2563 7.725 22.5008 8.31333 22.5 9V24C22.5 24.6875 22.255 25.2762 21.765 25.7662C21.275 26.2562 20.6867 26.5008 20 26.5ZM7.5 6.5H15C15 5.45833 14.6354 4.57292 13.9063 3.84375C13.1771 3.11458 12.2917 2.75 11.25 2.75C10.2083 2.75 9.32292 3.11458 8.59375 3.84375C7.86459 4.57292 7.5 5.45833 7.5 6.5ZM20 24V9H2.5V24H20ZM11.25 16.5C12.7917 16.5 14.1875 15.9896 15.4375 14.9687C16.6875 13.9479 17.3021 12.8021 17.2813 11.5312C17.2813 11.1771 17.1667 10.875 16.9375 10.625C16.7083 10.375 16.4167 10.25 16.0625 10.25C15.7708 10.25 15.5104 10.3438 15.2813 10.5313C15.0521 10.7188 14.8854 11 14.7813 11.375C14.5521 12.1667 14.1042 12.8021 13.4375 13.2813C12.7708 13.7604 12.0417 14 11.25 14C10.4583 14 9.72417 13.7604 9.0475 13.2813C8.37084 12.8021 7.92792 12.1667 7.71875 11.375C7.61459 10.9792 7.45834 10.6925 7.25 10.515C7.04167 10.3375 6.79167 10.2492 6.5 10.25C6.14584 10.25 5.84917 10.375 5.61 10.625C5.37084 10.875 5.25084 11.1771 5.25 11.5312C5.25 12.8021 5.86459 13.9479 7.09375 14.9687C8.32292 15.9896 9.70834 16.5 11.25 16.5Z" fill="black"/>
</svg>
