<svg width="17" height="10" viewBox="0 0 17 10" fill="none" xmlns="http://www.w3.org/2000/svg">
<path d="M0.323154 0.337935C0.53859 0.112645 0.793667 -7.11166e-07 1.08838 -6.97695e-07C1.3831 -6.84223e-07 1.63789 0.112645 1.85275 0.337935L8.16501 6.93895L14.4988 0.315407C14.6999 0.105136 14.9512 -6.40105e-08 15.2528 -5.02236e-08C15.5545 -3.64368e-08 15.813 0.112645 16.0284 0.337936C16.2438 0.563227 16.3516 0.829971 16.3516 1.13817C16.3516 1.44637 16.2438 1.71281 16.0284 1.9375L8.76823 9.50727C8.68206 9.59739 8.5887 9.66137 8.48816 9.69922C8.38763 9.73706 8.27991 9.75569 8.16501 9.75509C8.05011 9.75509 7.94239 9.73616 7.84186 9.69832C7.74132 9.66047 7.64797 9.59678 7.56179 9.50727L0.301611 1.91497C0.100538 1.7047 1.84693e-06 1.44546 1.85981e-06 1.13727C1.87269e-06 0.829069 0.107719 0.562625 0.323154 0.337935Z" fill="black"/>
</svg>
