<svg width="23" height="25" viewBox="0 0 23 25" fill="none" xmlns="http://www.w3.org/2000/svg">
<path d="M2.85715 22.1429H7.14286V13.5714H15.7143V22.1429H20V9.28571L11.4286 2.85714L2.85715 9.28571V22.1429ZM2.85715 25C2.07143 25 1.39857 24.72 0.838574 24.16C0.278574 23.6 -0.000949955 22.9276 2.42542e-06 22.1429V9.28571C2.42542e-06 8.83333 0.101431 8.40476 0.304288 8C0.507145 7.59524 0.786669 7.2619 1.14286 7L9.71429 0.571429C9.97619 0.380952 10.25 0.238095 10.5357 0.142857C10.8214 0.0476189 11.119 0 11.4286 0C11.7381 0 12.0357 0.0476189 12.3214 0.142857C12.6071 0.238095 12.881 0.380952 13.1429 0.571429L21.7143 7C22.0714 7.2619 22.3514 7.59524 22.5543 8C22.7571 8.40476 22.8581 8.83333 22.8571 9.28571V22.1429C22.8571 22.9286 22.5771 23.6014 22.0171 24.1614C21.4571 24.7214 20.7848 25.0009 20 25H12.8571V16.4286H10V25H2.85715Z" fill="black"/>
</svg>
