<svg width="110" height="36" viewBox="0 0 110 36" fill="none" xmlns="http://www.w3.org/2000/svg">
<path d="M19.0293 35H0.0292969V-2.38419e-06H4.1793V34.5H19.0293V35ZM27.1645 35C25.7978 35 24.7478 34.7 24.0145 34.1C23.3145 33.5 22.9478 32.9 22.9145 32.3L22.8645 31.45V10H26.3645V31.45C26.3645 32.4167 26.5478 33.1667 26.9145 33.7C27.3145 34.2 27.6978 34.4667 28.0645 34.5L28.6645 34.6H30.2145V35H27.1645ZM23.1645 4.4C22.7645 4 22.5645 3.5 22.5645 2.9C22.5645 2.3 22.7645 1.8 23.1645 1.4C23.5645 0.966664 24.0645 0.749997 24.6645 0.749997C25.2645 0.749997 25.7645 0.966664 26.1645 1.4C26.5978 1.8 26.8145 2.3 26.8145 2.9C26.8145 3.5 26.5978 4 26.1645 4.4C25.7645 4.8 25.2645 5 24.6645 5C24.0645 5 23.5645 4.8 23.1645 4.4ZM54.7227 35H35.7227V-2.38419e-06H39.8727V34.5H54.7227V35ZM62.8578 35C61.4911 35 60.4411 34.7 59.7078 34.1C59.0078 33.5 58.6411 32.9 58.6078 32.3L58.5578 31.45V10H62.0578V31.45C62.0578 32.4167 62.2411 33.1667 62.6078 33.7C63.0078 34.2 63.3911 34.4667 63.7578 34.5L64.3578 34.6H65.9078V35H62.8578ZM58.8578 4.4C58.4578 4 58.2578 3.5 58.2578 2.9C58.2578 2.3 58.4578 1.8 58.8578 1.4C59.2578 0.966664 59.7578 0.749997 60.3578 0.749997C60.9578 0.749997 61.4578 0.966664 61.8578 1.4C62.2911 1.8 62.5078 2.3 62.5078 2.9C62.5078 3.5 62.2911 4 61.8578 4.4C61.4578 4.8 60.9578 5 60.3578 5C59.7578 5 59.2578 4.8 58.8578 4.4ZM70.8258 22.8C70.8258 26.9333 71.5424 29.9667 72.9758 31.9C74.4424 33.8333 76.3591 34.8 78.7258 34.8C82.0591 34.8 85.0258 34.3 87.6258 33.3L87.7758 33.65C85.1091 34.6833 82.0924 35.2 78.7258 35.2C75.3924 35.2 72.6758 34.2 70.5758 32.2C68.4758 30.2 67.4258 27.1167 67.4258 22.95C67.4258 18.7833 68.5258 15.55 70.7258 13.25C72.9258 10.95 75.7258 9.8 79.1258 9.8C81.8591 9.8 84.1591 10.6167 86.0258 12.25C87.8924 13.8833 88.8258 16.3 88.8258 19.5C88.8258 19.6667 88.8258 19.8333 88.8258 20H70.9758C70.8758 20.9 70.8258 21.8333 70.8258 22.8ZM85.4258 19.6C85.3924 16.4 84.7758 14.0333 83.5758 12.5C82.3758 10.9667 80.8258 10.2 78.9258 10.2C77.0258 10.2 75.3258 11.0333 73.8258 12.7C72.3591 14.3667 71.4258 16.6667 71.0258 19.6H85.4258ZM106.977 11.75C106.444 11.3167 105.577 10.95 104.377 10.65C103.21 10.35 102.327 10.2 101.727 10.2C101.127 10.2 100.777 10.2 100.677 10.2C98.877 10.2333 97.577 10.7 96.777 11.6C95.977 12.4667 95.577 13.45 95.577 14.55C95.577 15.65 95.927 16.5833 96.627 17.35C97.327 18.0833 98.1936 18.6667 99.227 19.1C100.294 19.5 101.427 19.9667 102.627 20.5C103.86 21.0333 104.994 21.5833 106.027 22.15C107.094 22.6833 107.977 23.4833 108.677 24.55C109.377 25.5833 109.727 26.8833 109.727 28.45C109.727 30.0167 109.177 31.35 108.077 32.45C106.977 33.55 105.744 34.2833 104.377 34.65C103.044 35.0167 101.594 35.2 100.027 35.2C96.627 35.2 94.077 34.45 92.377 32.95L92.677 32.65C93.3436 33.2833 94.327 33.8 95.627 34.2C96.9603 34.6 98.2436 34.8 99.477 34.8C101.444 34.8 103.06 34.2667 104.327 33.2C105.627 32.1 106.277 30.75 106.277 29.15C106.277 27.5167 105.794 26.2167 104.827 25.25C103.86 24.25 102.677 23.4833 101.277 22.95C99.9103 22.3833 98.527 21.8333 97.127 21.3C95.727 20.7333 94.5436 19.9667 93.577 19C92.6103 18 92.127 16.85 92.127 15.55C92.127 14.25 92.427 13.2 93.027 12.4C93.627 11.5667 94.427 10.9833 95.427 10.65C97.127 10.0833 98.827 9.8 100.527 9.8C103.394 9.8 105.627 10.3333 107.227 11.4L106.977 11.75Z" fill="black"/>
</svg>
