<svg width="25" height="26" viewBox="0 0 25 26" fill="none" xmlns="http://www.w3.org/2000/svg">
<path d="M4.8125 19.375C5.875 18.5625 7.0625 17.9217 8.375 17.4525C9.6875 16.9833 11.0625 16.7492 12.5 16.75C13.9375 16.75 15.3125 16.9846 16.625 17.4537C17.9375 17.9229 19.125 18.5633 20.1875 19.375C20.9167 18.5208 21.4846 17.5521 21.8913 16.4687C22.2979 15.3854 22.5008 14.2292 22.5 13C22.5 10.2292 21.5263 7.86958 19.5788 5.92125C17.6313 3.97292 15.2717 2.99917 12.5 3C9.72917 3 7.36958 3.97375 5.42125 5.92125C3.47292 7.86875 2.49917 10.2283 2.5 13C2.5 14.2292 2.70333 15.3854 3.11 16.4687C3.51667 17.5521 4.08417 18.5208 4.8125 19.375ZM12.5 14.25C11.2708 14.25 10.2342 13.8283 9.39 12.985C8.54583 12.1417 8.12417 11.105 8.125 9.875C8.125 8.64583 8.54667 7.60917 9.39 6.765C10.2333 5.92083 11.27 5.49917 12.5 5.5C13.7292 5.5 14.7658 5.92167 15.61 6.765C16.4542 7.60833 16.8758 8.645 16.875 9.875C16.875 11.1042 16.4533 12.1408 15.61 12.985C14.7667 13.8292 13.73 14.2508 12.5 14.25ZM12.5 25.5C10.7708 25.5 9.14583 25.1717 7.625 24.515C6.10417 23.8583 4.78125 22.9679 3.65625 21.8438C2.53125 20.7188 1.64083 19.3958 0.985 17.875C0.329167 16.3542 0.000833333 14.7292 0 13C0 11.2708 0.328333 9.64583 0.985 8.125C1.64167 6.60417 2.53208 5.28125 3.65625 4.15625C4.78125 3.03125 6.10417 2.14083 7.625 1.485C9.14583 0.829167 10.7708 0.500833 12.5 0.5C14.2292 0.5 15.8542 0.828333 17.375 1.485C18.8958 2.14167 20.2188 3.03208 21.3438 4.15625C22.4688 5.28125 23.3596 6.60417 24.0162 8.125C24.6729 9.64583 25.0008 11.2708 25 13C25 14.7292 24.6717 16.3542 24.015 17.875C23.3583 19.3958 22.4679 20.7188 21.3438 21.8438C20.2188 22.9688 18.8958 23.8596 17.375 24.5162C15.8542 25.1729 14.2292 25.5008 12.5 25.5ZM12.5 23C13.6042 23 14.6458 22.8383 15.625 22.515C16.6042 22.1917 17.5 21.7283 18.3125 21.125C17.5 20.5208 16.6042 20.0571 15.625 19.7337C14.6458 19.4104 13.6042 19.2492 12.5 19.25C11.3958 19.25 10.3542 19.4117 9.375 19.735C8.39583 20.0583 7.5 20.5217 6.6875 21.125C7.5 21.7292 8.39583 22.1929 9.375 22.5163C10.3542 22.8396 11.3958 23.0008 12.5 23ZM12.5 11.75C13.0417 11.75 13.4896 11.5729 13.8437 11.2187C14.1979 10.8646 14.375 10.4167 14.375 9.875C14.375 9.33333 14.1979 8.88542 13.8437 8.53125C13.4896 8.17708 13.0417 8 12.5 8C11.9583 8 11.5104 8.17708 11.1563 8.53125C10.8021 8.88542 10.625 9.33333 10.625 9.875C10.625 10.4167 10.8021 10.8646 11.1563 11.2187C11.5104 11.5729 11.9583 11.75 12.5 11.75Z" fill="black"/>
</svg>
