<svg width="25" height="25" viewBox="0 0 25 25" fill="none" xmlns="http://www.w3.org/2000/svg">
<path d="M11.4013 0L23.301 1.69962L25.0006 13.5993L13.9507 24.6481C13.7253 24.8734 13.4196 25 13.1009 25C12.7821 25 12.4765 24.8734 12.2511 24.6481L0.351327 12.7483C0.126355 12.523 0 12.2176 0 11.8991C0 11.5807 0.126355 11.2753 0.351327 11.0499L11.4013 0ZM12.2511 2.54943L2.90196 11.8997L13.1009 22.0986L22.4512 12.7495L21.1759 3.82474L12.2511 2.54943ZM14.8017 10.1989C14.5721 9.97715 14.3889 9.71189 14.263 9.41859C14.137 9.12529 14.0706 8.80984 14.0679 8.49064C14.0651 8.17144 14.1259 7.85489 14.2468 7.55945C14.3677 7.26401 14.5462 6.9956 14.7719 6.76988C14.9976 6.54416 15.266 6.36566 15.5615 6.24478C15.8569 6.12391 16.1735 6.06308 16.4927 6.06586C16.8119 6.06863 17.1273 6.13495 17.4206 6.26094C17.7139 6.38693 17.9792 6.57007 18.2009 6.79968C18.6388 7.25307 18.8811 7.86032 18.8757 8.49064C18.8702 9.12096 18.6174 9.72391 18.1716 10.1696C17.7259 10.6153 17.123 10.8682 16.4927 10.8736C15.8623 10.8791 15.2551 10.6368 14.8017 10.1989Z" fill="black"/>
</svg>
