<svg width="50" height="50" viewBox="0 0 50 50" fill="none" xmlns="http://www.w3.org/2000/svg">
<path d="M25.0003 4.16663C20.8799 4.16663 16.852 5.38848 13.426 7.67768C9.99993 9.96687 7.32967 13.2206 5.75284 17.0274C4.17602 20.8342 3.76345 25.0231 4.56731 29.0643C5.37117 33.1056 7.35535 36.8178 10.2689 39.7313C13.1825 42.6449 16.8947 44.6291 20.936 45.433C24.9772 46.2368 29.1661 45.8243 32.9729 44.2475C36.7797 42.6706 40.0334 40.0004 42.3226 36.5743C44.6118 33.1483 45.8337 29.1204 45.8337 25C45.8337 22.2641 45.2948 19.555 44.2478 17.0274C43.2009 14.4998 41.6663 12.2031 39.7317 10.2686C37.7972 8.33401 35.5005 6.79944 32.9729 5.75247C30.4453 4.7055 27.7362 4.16663 25.0003 4.16663ZM25.0003 41.6666C21.704 41.6666 18.4817 40.6891 15.7408 38.8578C13 37.0264 10.8638 34.4235 9.60234 31.378C8.34088 28.3326 8.01083 24.9815 8.65391 21.7485C9.297 18.5154 10.8843 15.5457 13.2152 13.2148C15.5461 10.884 18.5158 9.29663 21.7488 8.65354C24.9818 8.01045 28.333 8.34051 31.3784 9.60197C34.4238 10.8634 37.0268 12.9996 38.8582 15.7405C40.6895 18.4813 41.667 21.7036 41.667 25C41.667 29.4202 39.9111 33.6595 36.7854 36.7851C33.6598 39.9107 29.4206 41.6666 25.0003 41.6666Z" fill="white"/>
<path d="M21.9173 24.5416C22.5969 24.4035 23.2051 24.0278 23.6327 23.4818C24.0603 22.9358 24.2794 22.2554 24.2507 21.5625C24.2507 19.4791 22.6465 18.2291 20.209 18.2291H14.584V31.7708H20.209C22.9173 31.6666 25.0007 30.2708 25.0007 27.8541C25.0202 27.4331 24.9555 27.0124 24.8103 26.6167C24.6652 26.221 24.4425 25.8582 24.1553 25.5497C23.8681 25.2412 23.5223 24.9931 23.138 24.82C22.7537 24.6469 22.3387 24.5523 21.9173 24.5416ZM17.209 20.1458H19.6048C20.8548 20.1458 21.584 20.8125 21.584 21.9166C21.584 23.0208 20.7923 23.7708 18.9798 23.7708H17.209V20.1458ZM19.2923 29.6666H17.209V25.625H19.7715C21.334 25.625 22.209 26.4166 22.209 27.7083C22.209 29 21.334 29.6666 19.209 29.6666H19.2923ZM30.7298 21.4583C30.0981 21.4057 29.4625 21.4903 28.8665 21.7064C28.2706 21.9225 27.7285 22.2649 27.2773 22.7101C26.8261 23.1554 26.4765 23.6929 26.2526 24.286C26.0286 24.879 25.9356 25.5134 25.9798 26.1458V27.0833C25.9285 27.7337 26.02 28.3875 26.2477 28.9989C26.4755 29.6104 26.834 30.1646 27.2984 30.623C27.7627 31.0814 28.3216 31.4328 28.9359 31.6526C29.5502 31.8725 30.2051 31.9555 30.8548 31.8958C31.8832 32.0179 32.9202 31.7527 33.7637 31.1519C34.6072 30.5511 35.1967 29.6576 35.4173 28.6458H32.8965C32.7661 29.0791 32.4834 29.4507 32.1005 29.6919C31.7176 29.9332 31.2603 30.0278 30.8132 29.9583C30.4947 29.9663 30.1782 29.9059 29.885 29.7812C29.5918 29.6565 29.3287 29.4704 29.1135 29.2355C28.8983 29.0006 28.736 28.7222 28.6375 28.4193C28.5389 28.1163 28.5065 27.7957 28.5423 27.4791V27.1875H35.4173V26.2083C35.4664 25.5774 35.3793 24.9433 35.162 24.3489C34.9446 23.7546 34.6021 23.2139 34.1576 22.7635C33.7131 22.3131 33.177 21.9634 32.5856 21.7382C31.9942 21.5131 31.3613 21.4176 30.7298 21.4583ZM32.8132 25.625H28.6048C28.5787 25.336 28.6132 25.0448 28.7062 24.77C28.7991 24.4952 28.9484 24.2428 29.1445 24.029C29.3407 23.8153 29.5793 23.6448 29.8451 23.5286C30.1109 23.4124 30.398 23.3529 30.6882 23.3541C30.9783 23.3529 31.2654 23.4124 31.5312 23.5286C31.797 23.6448 32.0356 23.8153 32.2318 24.029C32.4279 24.2428 32.5772 24.4952 32.6701 24.77C32.7631 25.0448 32.7976 25.336 32.7715 25.625H32.8132ZM27.6048 19.1666H33.8548V20.2083H27.6048V19.1666Z" fill="white"/>
</svg>
