<svg width="50" height="50" viewBox="0 0 50 50" fill="none" xmlns="http://www.w3.org/2000/svg">
<path d="M42.9688 5.46875H7.03125C6.16699 5.46875 5.46875 6.16699 5.46875 7.03125V42.9688C5.46875 43.833 6.16699 44.5312 7.03125 44.5312H42.9688C43.833 44.5312 44.5312 43.833 44.5312 42.9688V7.03125C44.5312 6.16699 43.833 5.46875 42.9688 5.46875ZM41.4062 41.4062H32.417V29.4043H37.4951L38.2568 23.5107H32.417V19.7461C32.417 18.0371 32.8906 16.875 35.3369 16.875H38.457V11.6016C37.915 11.5283 36.0645 11.3672 33.9063 11.3672C29.4043 11.3672 26.3232 14.1162 26.3232 19.1602V23.5059H21.2354V29.3994H26.3281V41.4062H8.59375V8.59375H41.4062V41.4062Z" fill="white"/>
</svg>
