<svg width="50" height="50" viewBox="0 0 50 50" fill="none" xmlns="http://www.w3.org/2000/svg">
<path d="M16.2503 4.16663H33.7503C40.417 4.16663 45.8337 9.58329 45.8337 16.25V33.75C45.8337 36.9547 44.5606 40.0281 42.2945 42.2942C40.0285 44.5602 36.955 45.8333 33.7503 45.8333H16.2503C9.58366 45.8333 4.16699 40.4166 4.16699 33.75V16.25C4.16699 13.0453 5.44005 9.97182 7.70612 7.70575C9.97218 5.43969 13.0456 4.16663 16.2503 4.16663ZM15.8337 8.33329C13.8445 8.33329 11.9369 9.12347 10.5304 10.53C9.12384 11.9365 8.33366 13.8442 8.33366 15.8333V34.1666C8.33366 38.3125 11.6878 41.6666 15.8337 41.6666H34.167C36.1561 41.6666 38.0638 40.8765 39.4703 39.4699C40.8768 38.0634 41.667 36.1558 41.667 34.1666V15.8333C41.667 11.6875 38.3128 8.33329 34.167 8.33329H15.8337ZM35.9378 11.4583C36.6285 11.4583 37.2909 11.7327 37.7793 12.221C38.2676 12.7094 38.542 13.3718 38.542 14.0625C38.542 14.7531 38.2676 15.4155 37.7793 15.9039C37.2909 16.3923 36.6285 16.6666 35.9378 16.6666C35.2472 16.6666 34.5848 16.3923 34.0964 15.9039C33.608 15.4155 33.3337 14.7531 33.3337 14.0625C33.3337 13.3718 33.608 12.7094 34.0964 12.221C34.5848 11.7327 35.2472 11.4583 35.9378 11.4583ZM25.0003 14.5833C27.763 14.5833 30.4125 15.6808 32.366 17.6343C34.3195 19.5878 35.417 22.2373 35.417 25C35.417 27.7626 34.3195 30.4122 32.366 32.3657C30.4125 34.3192 27.763 35.4166 25.0003 35.4166C22.2377 35.4166 19.5881 34.3192 17.6346 32.3657C15.6811 30.4122 14.5837 27.7626 14.5837 25C14.5837 22.2373 15.6811 19.5878 17.6346 17.6343C19.5881 15.6808 22.2377 14.5833 25.0003 14.5833ZM25.0003 18.75C23.3427 18.75 21.753 19.4084 20.5809 20.5805C19.4088 21.7526 18.7503 23.3424 18.7503 25C18.7503 26.6576 19.4088 28.2473 20.5809 29.4194C21.753 30.5915 23.3427 31.25 25.0003 31.25C26.6579 31.25 28.2476 30.5915 29.4197 29.4194C30.5918 28.2473 31.2503 26.6576 31.2503 25C31.2503 23.3424 30.5918 21.7526 29.4197 20.5805C28.2476 19.4084 26.6579 18.75 25.0003 18.75Z" fill="white"/>
</svg>
