<svg width="45" height="45" viewBox="0 0 45 45" fill="none" xmlns="http://www.w3.org/2000/svg">
<g clip-path="url(#clip0_211_142)">
<path d="M22.5 0C10.0912 0 0 10.0884 0 22.5C0 34.9116 10.0884 45 22.5 45C34.9116 45 45 34.9087 45 22.5C45 10.0912 34.9087 0 22.5 0ZM22.5 41.9934C20.5427 41.9941 18.5963 41.7011 16.7259 41.1244C17.5163 39.8334 18.7116 37.7044 19.1503 36.0169C19.3866 35.1028 20.3625 31.3847 20.3625 31.3847C20.9953 32.5969 22.86 33.6263 24.8259 33.6263C30.7069 33.6263 34.9425 28.2206 34.9425 21.4959C34.9425 15.0525 29.6859 10.2375 22.9275 10.2375C14.5153 10.2375 10.0519 15.8878 10.0519 22.0331C10.0519 24.8906 11.5734 28.4484 14.0063 29.5819C14.3747 29.7591 14.5688 29.6775 14.6559 29.3175C14.7178 29.0447 15.0525 27.7256 15.2016 27.1041C15.2287 27.0068 15.2309 26.9042 15.2078 26.8058C15.1847 26.7075 15.1371 26.6166 15.0694 26.5416C14.2622 25.5656 13.6181 23.7628 13.6181 22.095C13.6181 17.7975 16.8694 13.6322 22.4156 13.6322C27.2053 13.6322 30.555 16.8919 30.555 21.5606C30.555 26.8341 27.8916 30.4903 24.4294 30.4903C22.5141 30.4903 21.0797 28.9069 21.5466 26.9663C22.1006 24.6459 23.1637 22.1484 23.1637 20.4806C23.1637 18.9872 22.365 17.7384 20.6944 17.7384C18.7341 17.7384 17.1703 19.7606 17.1703 22.4747C17.1703 24.1959 17.7497 25.3659 17.7497 25.3659C17.7497 25.3659 15.8147 33.5306 15.4631 35.0522C15.0666 36.7397 15.2269 39.105 15.3928 40.6434C11.7411 39.2187 8.60456 36.7248 6.39357 33.4881C4.18257 30.2514 3.00012 26.4226 3.00094 22.5028C3.00149 18.6482 4.145 14.8802 6.28687 11.6755C8.42874 8.47067 11.4728 5.97295 15.0341 4.4981C18.5955 3.02325 22.5141 2.6375 26.2947 3.38964C30.0752 4.14178 33.5479 5.99803 36.2735 8.72367C38.9992 11.4493 40.8554 14.922 41.6075 18.7025C42.3597 22.4831 41.9739 26.4017 40.4991 29.9631C39.0242 33.5244 36.5265 36.5684 33.3217 38.7103C30.1169 40.8522 26.349 41.9957 22.4944 41.9963L22.5 41.9934Z" fill="white"/>
</g>
<defs>
<clipPath id="clip0_211_142">
<rect width="45" height="45" fill="white"/>
</clipPath>
</defs>
</svg>
